<svg width="33.000000" height="11.000000" viewBox="0 0 33 11" fill="none" xmlns="http://www.w3.org/2000/svg" xmlns:xlink="http://www.w3.org/1999/xlink">
	<desc>
			Created with Pixso.
	</desc>
	<defs/>
	<path id="Vector" d="M21.37 -0.69C21.83 -0.2 22.29 0.3 22.75 0.79C22.76 0.8 22.81 0.85 22.85 0.88L22.85 0.46L22.85 0.46C22.85 0.38 22.89 0.34 22.98 0.35C23.25 0.35 23.51 0.35 23.78 0.35C23.86 0.35 23.9 0.4 23.9 0.48L23.9 0.48C23.89 0.94 23.89 1.4 23.87 1.85C23.87 1.86 23.87 1.87 23.87 1.88C23.87 2.03 23.93 2.13 24.02 2.23C24.5 2.75 24.98 3.27 25.46 3.79C25.46 3.8 25.46 3.8 25.46 3.81C25.46 3.82 25.46 3.83 25.46 3.84C25.41 3.8 25.36 3.76 25.31 3.71C25 3.39 24.68 3.07 24.36 2.75C24.2 2.58 24.03 2.41 23.85 2.25C23.76 2.17 23.73 2.08 23.73 1.96L23.73 1.96C23.73 1.75 23.73 1.54 23.73 1.33C23.73 1.21 23.73 1.08 23.73 0.96C23.73 0.83 23.73 0.7 23.73 0.57C23.68 0.57 23.63 0.57 23.58 0.57C23.48 0.57 23.39 0.57 23.3 0.57L23.08 0.57L23.08 1.15C23.08 1.21 23.05 1.29 23.01 1.31C22.96 1.33 22.88 1.3 22.83 1.26C22.74 1.2 22.68 1.12 22.6 1.04C22.17 0.6 21.73 0.15 21.29 -0.29C21.26 -0.32 21.22 -0.36 21.17 -0.4C19.82 1.1 18.39 2.5 16.89 3.84L16.86 3.81C17 3.64 17.14 3.46 17.28 3.3C17.6 2.91 17.93 2.53 18.26 2.15C18.49 1.89 18.71 1.64 18.95 1.39C19.61 0.69 20.28 0 20.95 -0.69C21.14 -0.89 21.19 -0.89 21.37 -0.69ZM24.18 3.31L21.16 0.21L18.14 3.31L18.11 3.28C18.29 3.08 18.47 2.88 18.66 2.69C19.29 2.01 19.93 1.34 20.57 0.67C20.74 0.49 20.91 0.31 21.08 0.12C21.11 0.09 21.14 0.07 21.16 0.07C21.19 0.07 21.21 0.09 21.24 0.12C21.41 0.31 21.58 0.49 21.75 0.67C22.39 1.34 23.03 2.01 23.67 2.69C23.85 2.88 24.03 3.08 24.21 3.28L24.18 3.31ZM21.1 2.13L21.1 2.91L20.34 2.91L20.34 2.13L21.1 2.13ZM21.24 2.9L21.24 2.13L21.99 2.13L21.99 2.9L21.24 2.9ZM21.1 3.05L21.1 3.82L20.33 3.82L20.33 3.05L21.1 3.05ZM21.24 3.05L21.99 3.05L21.99 3.83L21.24 3.83L21.24 3.05ZM27.26 7.4L27.26 7.82C27.26 7.85 27.26 7.88 27.26 7.92C27.26 7.95 27.26 7.98 27.26 8.01C27.26 8.62 27.23 9.2 26.76 9.68C26.4 10.03 25.95 10.2 25.38 10.2C24.81 10.2 24.36 10.03 24 9.68C23.5 9.19 23.5 8.57 23.5 8L23.5 7.97L23.5 7.95L23.5 7.65C23.5 6.74 23.61 6.34 24 5.96C24.35 5.6 24.81 5.43 25.37 5.43C25.94 5.43 26.4 5.6 26.76 5.96C27.1 6.3 27.26 6.72 27.26 7.4ZM5.34 8.91L3.72 5.47L4.9 5.47L5.94 7.61L6.93 5.47L8.08 5.47L5.85 10.16L4.75 10.16L5.34 8.91ZM1.6 7.37L3.23 10.16L1.91 10.16L0.84 8.24L0.45 8.69L0.45 10.16L-0.67 10.16L-0.67 5.47L0.45 5.47L0.45 7.13L1.93 5.47L3.32 5.47L1.6 7.37ZM12.55 5.47L12.55 10.16L11.3 10.16L11.3 6.5L9.97 6.5L9.97 10.16L8.72 10.16L8.72 5.47L12.55 5.47ZM17.54 5.47L17.54 10.16L16.31 10.16L16.31 7.61L14.7 10.16L13.63 10.16L13.63 5.47L14.86 5.47L14.86 8.03L16.46 5.47L17.54 5.47ZM21.7 10.16L19.38 10.16L19.38 10.83L18.26 10.83L18.26 9.14L18.73 9.14C19.06 8.26 19.2 7.33 19.2 5.67L19.2 5.47L22.28 5.47L22.28 9.14L22.81 9.14L22.81 10.83L21.7 10.83L21.7 10.16ZM32.66 5.47L32.66 10.16L31.51 10.16L31.51 7.92L30.85 9.08L30.11 9.08L29.44 7.92L29.44 10.16L28.29 10.16L28.29 5.47L29.42 5.47L30.48 7.54L31.53 5.47L32.66 5.47ZM25.86 8.96C25.99 8.81 26.04 8.54 26.04 7.94L26.04 7.62C26.04 7.18 25.99 6.83 25.86 6.67C25.75 6.53 25.58 6.46 25.38 6.46C25.18 6.46 25 6.53 24.89 6.67C24.76 6.83 24.71 7.18 24.71 7.62L24.71 7.94C24.71 8.54 24.76 8.81 24.89 8.96C25 9.1 25.18 9.18 25.38 9.18C25.57 9.18 25.75 9.1 25.86 8.96ZM20.35 6.63C20.35 7.75 20.17 8.45 19.92 9.14L21.11 9.14L21.11 6.5L20.35 6.5L20.35 6.63Z" fill="#004186" fill-opacity="1.000000" fill-rule="evenodd"/>
</svg>
