<svg width="26.666656" height="9.333313" viewBox="0 0 26.6667 9.33331" fill="none" xmlns="http://www.w3.org/2000/svg" xmlns:xlink="http://www.w3.org/1999/xlink">
	<desc>
			Created with Pixso.
	</desc>
	<defs/>
	<path id="Vector" d="M17.63 0.11C18 0.5 18.36 0.9 18.73 1.3C18.74 1.31 18.78 1.34 18.81 1.37L18.81 1.04L18.81 1.04C18.81 0.97 18.84 0.94 18.92 0.94C19.13 0.95 19.34 0.95 19.55 0.95C19.62 0.95 19.65 0.98 19.65 1.05L19.65 1.05C19.64 1.42 19.64 1.78 19.63 2.15C19.63 2.16 19.63 2.16 19.63 2.17C19.63 2.29 19.68 2.37 19.75 2.45C20.13 2.87 20.52 3.28 20.9 3.7C20.9 3.7 20.9 3.71 20.9 3.72C20.9 3.72 20.9 3.73 20.9 3.74C20.86 3.7 20.82 3.67 20.78 3.63C20.53 3.38 20.28 3.12 20.02 2.86C19.89 2.73 19.75 2.59 19.61 2.46C19.54 2.4 19.52 2.33 19.52 2.24L19.52 2.23C19.52 2.06 19.52 1.9 19.52 1.73C19.52 1.63 19.52 1.53 19.52 1.43C19.52 1.33 19.52 1.23 19.52 1.12C19.48 1.12 19.43 1.12 19.39 1.12C19.32 1.12 19.24 1.12 19.17 1.12L19 1.12L19 1.59C19 1.63 18.97 1.7 18.94 1.71C18.9 1.73 18.83 1.7 18.79 1.68C18.73 1.63 18.67 1.56 18.62 1.5C18.27 1.14 17.91 0.79 17.56 0.43C17.54 0.41 17.51 0.38 17.47 0.34C16.39 1.54 15.24 2.67 14.05 3.74L14.02 3.71C14.13 3.57 14.24 3.44 14.35 3.3C14.62 2.99 14.88 2.69 15.14 2.38C15.32 2.18 15.5 1.98 15.69 1.78C16.22 1.22 16.76 0.67 17.29 0.11C17.44 -0.04 17.48 -0.04 17.63 0.11ZM19.88 3.31L17.46 0.84L15.04 3.31L15.02 3.29C15.17 3.13 15.31 2.97 15.46 2.82C15.97 2.28 16.48 1.74 16.99 1.2C17.13 1.05 17.26 0.91 17.4 0.76C17.42 0.74 17.44 0.72 17.46 0.72C17.48 0.72 17.5 0.74 17.53 0.76C17.66 0.91 17.8 1.05 17.93 1.2C18.45 1.74 18.96 2.28 19.47 2.82C19.61 2.97 19.76 3.13 19.9 3.29L19.88 3.31ZM17.41 2.37L17.41 2.99L16.8 2.99L16.8 2.37L17.41 2.37ZM17.53 2.99L17.53 2.37L18.13 2.37L18.13 2.99L17.53 2.99ZM17.41 3.1L17.41 3.72L16.8 3.72L16.8 3.1L17.41 3.1ZM17.53 3.1L18.12 3.1L18.12 3.73L17.53 3.73L17.53 3.1ZM22.34 6.59L22.34 6.92C22.34 6.95 22.34 6.97 22.34 7C22.34 7.02 22.34 7.05 22.34 7.08C22.34 7.56 22.32 8.03 21.94 8.41C21.65 8.69 21.29 8.83 20.84 8.83C20.38 8.83 20.02 8.69 19.73 8.41C19.34 8.02 19.33 7.52 19.33 7.06L19.33 7.04L19.33 7.03L19.33 6.79C19.33 6.06 19.42 5.74 19.73 5.43C20.01 5.15 20.38 5.01 20.83 5.01C21.28 5.01 21.65 5.15 21.94 5.43C22.21 5.71 22.34 6.05 22.34 6.59ZM4.8 7.79L3.51 5.04L4.45 5.04L5.29 6.76L6.08 5.04L6.99 5.04L5.21 8.8L4.33 8.8L4.8 7.79ZM1.81 6.56L3.12 8.8L2.06 8.8L1.21 7.26L0.89 7.62L0.89 8.8L0 8.8L0 5.04L0.89 5.04L0.89 6.37L2.08 5.04L3.19 5.04L1.81 6.56ZM10.58 5.04L10.58 8.8L9.58 8.8L9.58 5.87L8.51 5.87L8.51 8.8L7.51 8.8L7.51 5.04L10.58 5.04ZM14.56 5.04L14.56 8.8L13.58 8.8L13.58 6.75L12.3 8.8L11.44 8.8L11.44 5.04L12.42 5.04L12.42 7.09L13.7 5.04L14.56 5.04ZM17.89 8.8L16.03 8.8L16.03 9.33L15.14 9.33L15.14 7.97L15.51 7.97C15.78 7.27 15.9 6.53 15.9 5.2L15.9 5.04L18.35 5.04L18.35 7.97L18.78 7.97L18.78 9.33L17.89 9.33L17.89 8.8ZM26.66 5.04L26.66 8.8L25.74 8.8L25.74 7L25.21 7.93L24.62 7.93L24.09 7L24.09 8.8L23.17 8.8L23.17 5.04L24.07 5.04L24.91 6.7L25.76 5.04L26.66 5.04ZM21.22 7.84C21.33 7.71 21.37 7.5 21.37 7.02L21.37 6.76C21.37 6.41 21.33 6.13 21.22 6C21.13 5.89 20.99 5.83 20.83 5.83C20.67 5.83 20.53 5.89 20.45 6C20.34 6.13 20.3 6.41 20.3 6.76L20.3 7.02C20.3 7.5 20.34 7.71 20.45 7.84C20.53 7.94 20.68 8.01 20.83 8.01C20.99 8.01 21.13 7.94 21.22 7.84ZM16.81 5.97C16.81 6.86 16.67 7.43 16.47 7.97L17.42 7.97L17.42 5.87L16.81 5.87L16.81 5.97Z" fill="#004186" fill-opacity="1.000000" fill-rule="evenodd"/>
</svg>
