<svg width="24.000000" height="24.000000" viewBox="0 0 24 24" fill="none" xmlns="http://www.w3.org/2000/svg" xmlns:xlink="http://www.w3.org/1999/xlink">
	<desc>
			Created with Pixso.
	</desc>
	<defs/>
	<rect id="Social, Media/Whatsup" width="24.000000" height="24.000000" fill="#FFFFFF" fill-opacity="0"/>
	<path id="Path" d="M12.03 3.2C7.23 3.2 3.31 7.11 3.31 11.92C3.31 13.44 3.71 14.95 4.48 16.27L3.24 20.79L7.86 19.58C9.14 20.27 10.57 20.64 12.03 20.64L12.03 20.64C16.84 20.64 20.75 16.73 20.75 11.92C20.75 9.59 19.85 7.41 18.2 5.76C16.55 4.11 14.36 3.2 12.03 3.2Z" stroke="#FFFFFF" stroke-opacity="1.000000" stroke-width="1.500000" stroke-linejoin="round"/>
	<path id="Path" d="M13.09 13.56L13.5 13.15C13.87 12.78 14.46 12.74 14.89 13.04C15.31 13.33 15.68 13.59 16.03 13.84C16.59 14.22 16.65 15.01 16.17 15.49L15.82 15.85" stroke="#FFFFFF" stroke-opacity="1.000000" stroke-width="1.500000" stroke-linejoin="round" stroke-linecap="round"/>
	<path id="Path" d="M8.14 8.17L8.5 7.82C8.98 7.34 9.77 7.4 10.15 7.96C10.4 8.31 10.66 8.68 10.95 9.1C11.26 9.53 11.21 10.12 10.84 10.49L10.43 10.9" stroke="#FFFFFF" stroke-opacity="1.000000" stroke-width="1.500000" stroke-linejoin="round" stroke-linecap="round"/>
	<path id="Path" d="M15.82 15.85C14.34 17.32 11.85 16.07 9.88 14.11" stroke="#FFFFFF" stroke-opacity="1.000000" stroke-width="1.500000" stroke-linejoin="round" stroke-linecap="round"/>
	<path id="Path" d="M9.88 14.11C7.92 12.14 6.67 9.66 8.14 8.17" stroke="#FFFFFF" stroke-opacity="1.000000" stroke-width="1.500000" stroke-linejoin="round" stroke-linecap="round"/>
	<path id="Path" d="M10.43 10.9C10.75 11.4 11.16 11.9 11.62 12.36L11.63 12.37C12.09 12.83 12.59 13.24 13.09 13.56" stroke="#FFFFFF" stroke-opacity="1.000000" stroke-width="1.500000" stroke-linejoin="round" stroke-linecap="round"/>
</svg>
